<?xml version="1.0" standalone="no"?>
<!DOCTYPE svg PUBLIC "-//W3C//DTD SVG 20010904//EN"
 "http://www.w3.org/TR/2001/REC-SVG-20010904/DTD/svg10.dtd">
<svg version="1.0" xmlns="http://www.w3.org/2000/svg"
 width="1920.000000pt" height="1152.000000pt" viewBox="0 0 1920.000000 1152.000000"
 preserveAspectRatio="xMidYMid meet">

<g transform="translate(0.000000,1152.000000) scale(0.100000,-0.100000)"
fill="#000000" stroke="none">
<path d="M0 5760 l0 -5760 9600 0 9600 0 0 5760 0 5760 -9600 0 -9600 0 0
-5760z m1508 -47 c2 -7 -7 -22 -20 -35 l-23 -23 -3 23 c-6 39 34 69 46 35z
m238 -27 c8 -21 -14 -56 -31 -50 -18 7 -20 35 -3 52 16 16 27 15 34 -2z m2618
-777 c32 -25 35 -70 6 -99 -29 -29 -74 -26 -100 8 -22 27 -22 27 -177 32 -144
5 -154 6 -129 20 24 12 29 12 37 0 8 -12 12 -12 16 -2 3 8 37 12 120 12 108 0
117 1 145 25 36 30 48 31 82 4z m-630 -44 c4 -12 -3 -15 -29 -15 -26 0 -33 3
-29 15 4 8 16 15 29 15 13 0 25 -7 29 -15z m584 -186 c56 -49 82 -61 102 -45
52 39 91 36 112 -9 14 -31 -3 -75 -29 -75 -14 0 -12 -4 8 -26 43 -47 -84 40
-139 95 -26 26 -61 54 -77 62 -16 8 -30 20 -33 27 -7 21 8 13 56 -29z m1552
21 c14 -4 18 -9 10 -9 -11 -1 -12 -3 -3 -9 7 -4 13 -36 15 -72 l3 -65 602 -3
601 -2 230 -230 229 -230 285 0 c276 0 285 1 304 21 30 33 51 41 77 28 29 -16
37 -28 37 -61 0 -55 -84 -76 -110 -28 -10 19 -22 20 -308 20 l-297 0 -230 230
-230 230 -688 0 -688 0 -432 -430 c-409 -408 -431 -432 -429 -464 3 -34 -8
-49 -44 -60 -26 -8 -64 26 -64 59 0 31 40 59 70 50 18 -6 88 59 456 426 239
239 442 436 451 440 14 4 17 18 16 70 -1 55 2 67 20 81 23 18 74 22 117 8z
m-2153 -32 c45 -42 22 -118 -35 -118 -74 0 -95 96 -28 128 31 15 37 14 63 -10z
m558 0 c7 -8 5 -8 -5 -3 -11 6 -10 3 3 -12 30 -34 17 -63 -36 -77 -35 -9 -79
30 -70 63 12 45 77 63 108 29z m-2967 -50 c2 -18 -1 -28 -10 -29 -7 0 5 -6 27
-13 l40 -13 -47 -7 c-25 -5 -66 -5 -90 -1 l-43 8 30 11 c22 8 30 16 27 29 -7
32 6 49 35 45 22 -2 29 -9 31 -30z m568 -23 c-22 -34 -32 -37 -102 -33 l-59 3
62 9 c45 6 68 15 84 32 28 30 37 23 15 -11z m1577 -232 c-6 -42 -5 -43 23 -44
l29 0 -25 -10 c-19 -8 -27 -7 -36 5 -6 9 -14 13 -18 9 -11 -12 -26 19 -26 54
0 22 7 37 22 48 21 14 23 14 29 -2 4 -10 5 -37 2 -60z m-1105 23 c-2 -25 -8
-32 -30 -34 -19 -2 -30 3 -39 19 -10 19 -9 25 10 40 12 10 30 15 41 12 17 -4
20 -12 18 -37z m-1928 24 c0 -5 -8 -10 -17 -10 -15 0 -16 2 -3 10 19 12 20 12
20 0z m228 1 c9 -5 1 -10 -25 -14 -75 -13 -178 -4 -167 14 7 11 175 11 192 0z
m5392 -36 c0 -19 0 -38 1 -42 0 -4 -4 -9 -10 -11 -7 -2 -11 12 -11 36 0 34 -4
41 -22 45 -17 3 -14 5 10 6 30 1 32 -1 32 -34z m1470 -9 c0 -64 -7 -76 -45
-76 -33 0 -33 0 -37 56 -1 31 -1 58 1 60 2 2 22 4 43 4 l38 0 0 -44z m-1530
-36 c0 -5 -5 -10 -11 -10 -5 0 -7 5 -4 10 3 6 8 10 11 10 2 0 4 -4 4 -10z
m3127 -35 c42 -25 43 -27 43 -79 l0 -53 -50 -27 -49 -27 -40 21 c-47 23 -61
45 -61 92 0 41 6 50 50 77 45 27 54 26 107 -4z m893 3 c39 -23 40 -24 40 -80
0 -54 -1 -57 -36 -77 -44 -26 -57 -26 -106 1 -39 22 -39 23 -36 77 3 53 5 56
43 78 49 28 47 28 95 1z m990 -685 c1090 -1097 1091 -1099 1084 -1117 -4 -9
-13 -15 -20 -12 -8 3 -14 2 -14 -3 0 -16 13 -21 27 -10 8 7 13 8 13 1 0 -5 -7
-13 -16 -16 -11 -4 -143 121 -467 442 -249 247 -594 588 -767 760 l-315 311
-400 -2 c-393 -2 -400 -2 -398 -22 2 -11 0 -32 -3 -47 -5 -23 -11 -28 -34 -28
-27 0 -29 3 -32 48 l-3 47 -380 3 -380 2 -420 -420 -420 -420 -984 0 -985 0
-165 -163 -166 -163 -51 -2 c-28 -2 -64 2 -80 8 -20 8 -30 8 -32 1 -2 -6 -28
-11 -58 -11 -49 0 -54 2 -45 17 7 14 4 21 -17 35 l-27 18 28 0 c15 0 27 -6 28
-12 0 -10 2 -10 6 0 3 8 35 12 111 12 l107 0 170 170 170 170 735 2 735 3 -3
32 c-6 61 4 73 59 73 47 0 49 -1 50 -27 1 -16 2 -39 2 -53 l2 -25 186 -3 185
-2 419 420 419 420 856 0 856 0 434 -437z m-5585 397 c24 -26 28 -95 7 -112
-23 -20 -80 -22 -107 -4 -32 21 -41 68 -19 101 30 45 85 52 119 15z m1130 -28
c-3 -3 -11 0 -18 7 -9 10 -8 11 6 5 10 -3 15 -9 12 -12z m1179 2 c3 -8 2 -24
-4 -34 -15 -29 -41 -33 -72 -10 -15 11 -34 20 -43 20 -8 0 -15 5 -15 10 0 6 9
10 19 10 11 0 23 5 26 10 10 17 82 12 89 -6z m211 -59 c0 -59 -1 -60 -29 -63
-16 -2 -44 -1 -63 3 -32 6 -33 7 -33 59 0 29 3 56 7 60 4 4 32 6 63 4 l55 -3
0 -60z m-855 45 c0 -6 -28 -10 -65 -10 -37 0 -65 4 -65 10 0 6 28 10 65 10 37
0 65 -4 65 -10z m-4590 -85 c-7 -8 -20 -15 -30 -15 -10 0 -23 7 -30 15 -11 13
-7 15 30 15 37 0 41 -2 30 -15z m25 -76 c10 -32 -4 -60 -28 -56 -50 6 -64 44
-26 71 25 17 46 12 54 -15z m1250 -14 c0 -40 0 -40 -42 -43 l-43 -3 0 46 0 46
43 -3 c42 -3 42 -3 42 -43z m6660 -475 l440 -440 261 0 261 0 139 -141 c77
-77 141 -143 144 -147 2 -4 -61 57 -140 136 l-145 142 -265 0 -265 0 -435 435
-435 435 -535 0 -535 0 -247 -247 c-137 -137 -248 -256 -248 -265 0 -10 -7
-18 -16 -18 -9 0 -56 -38 -103 -85 l-87 -85 -502 0 c-432 0 -503 -2 -508 -15
-15 -38 -84 -23 -84 18 0 47 58 65 82 27 13 -20 22 -20 507 -20 l494 1 73 71
c41 39 74 75 74 79 0 3 -9 9 -20 12 -17 4 -20 14 -20 56 l0 51 55 0 c48 0 55
-2 55 -20 0 -11 3 -20 8 -20 4 0 115 108 247 240 l240 240 535 0 535 0 440
-440z m-8851 145 c26 -30 44 -55 39 -55 -11 0 -176 165 -182 182 -7 21 93 -67
143 -127z m5867 85 c26 -15 26 -66 -1 -80 -24 -13 -56 -5 -64 15 -5 13 -113
15 -807 15 l-801 0 -122 -122 c-66 -67 -141 -139 -166 -162 -25 -22 30 36 122
129 l167 169 798 4 c766 4 799 5 816 23 20 22 30 23 58 9z m2492 -232 c31 -3
32 -4 32 -53 0 -48 -1 -49 -35 -57 -19 -4 -42 -5 -51 -2 -31 9 -33 114 -3 114
8 0 15 8 15 18 1 15 2 15 6 0 3 -10 16 -18 36 -20z m-1188 -48 c-27 -27 -51
-47 -54 -45 -6 7 80 95 93 95 6 0 -12 -22 -39 -50z m633 38 c7 -7 12 -26 12
-43 0 -38 -16 -55 -50 -55 -14 0 -31 5 -38 12 -16 16 -15 85 1 91 23 10 63 7
75 -5z m-393 -78 c-10 -11 -23 -20 -28 -20 -6 0 0 11 13 25 27 29 42 25 15 -5z
m-4480 -80 c3 -5 -1 -10 -10 -10 -9 0 -13 5 -10 10 3 6 8 10 10 10 2 0 7 -4
10 -10z m230 0 c3 -5 -1 -10 -10 -10 -9 0 -13 5 -10 10 3 6 8 10 10 10 2 0 7
-4 10 -10z m200 0 c3 -5 -1 -10 -10 -10 -9 0 -13 5 -10 10 3 6 8 10 10 10 2 0
7 -4 10 -10z m225 0 c0 -5 -4 -10 -10 -10 -5 0 -10 5 -10 10 0 6 5 10 10 10 6
0 10 -4 10 -10z m195 0 c3 -5 -1 -10 -10 -10 -9 0 -13 5 -10 10 3 6 8 10 10
10 2 0 7 -4 10 -10z m-3600 -200 c11 -18 -6 -50 -26 -50 -22 0 -34 22 -25 45
6 17 42 20 51 5z m6575 -86 c0 -8 -4 -12 -10 -9 -5 3 -10 10 -10 16 0 5 5 9
10 9 6 0 10 -7 10 -16z m-3843 -1 c-20 -2 -52 -2 -70 0 -17 2 0 4 38 4 39 0
53 -2 32 -4z m4141 -5 c17 -17 15 -64 -4 -82 -18 -19 -65 -21 -82 -4 -7 7 -12
26 -12 43 0 17 5 36 12 43 7 7 26 12 43 12 17 0 36 -5 43 -12z m752 -51 c0 -2
-12 -14 -27 -28 l-28 -24 24 28 c23 25 31 32 31 24z m1659 -153 l32 -7 -3 -96
-3 -96 -96 -3 -96 -3 -7 38 c-15 94 -4 160 28 166 35 7 112 7 145 1z m1997
-90 c11 -42 -34 -72 -64 -42 -28 28 0 81 38 71 11 -3 23 -16 26 -29z m632 -3
c5 -32 -23 -54 -49 -40 -11 5 -19 18 -19 27 0 45 62 56 68 13z m-1967 2 c13
-16 12 -17 -3 -4 -10 7 -18 15 -18 17 0 8 8 3 21 -13z m-5143 -46 c23 -23 42
-50 42 -59 0 -9 4 -20 10 -23 6 -4 7 1 3 12 -4 12 4 9 26 -12 17 -16 34 -39
37 -52 3 -12 11 -20 17 -19 7 2 8 1 4 -2 -4 -2 -2 -10 4 -18 10 -12 14 -12 22
-2 6 10 7 9 4 -4 -6 -17 15 -42 26 -31 4 3 7 1 7 -5 0 -7 -3 -12 -8 -12 -4 0
-61 54 -127 120 l-120 120 -185 0 c-141 1 -191 4 -210 15 -22 13 -1 14 190 15
l216 0 42 -43z m2189 13 c9 -10 18 -26 19 -35 4 -24 -19 -69 -36 -74 -8 -2
-23 -6 -32 -8 -24 -7 -68 40 -68 73 0 15 7 36 17 46 22 24 78 24 100 -2z
m-932 4 c28 -11 37 -51 20 -91 -14 -34 -17 -35 -56 -30 -47 6 -69 30 -62 67 9
49 50 72 98 54z m3926 -11 c13 -16 12 -17 -3 -4 -10 7 -18 15 -18 17 0 8 8 3
21 -13z m-9298 -22 c8 -8 -9 -11 -63 -11 -70 1 -74 2 -55 16 22 17 99 14 118
-5z m9338 -18 c13 -16 12 -17 -3 -4 -17 13 -22 21 -14 21 2 0 10 -8 17 -17z
m340 -10 c13 -15 16 -21 7 -14 -10 7 -18 10 -18 5 0 -11 -20 18 -20 29 0 12 5
8 31 -20z m-9716 -63 c0 -28 -27 -39 -50 -20 -21 18 -1 52 28 48 16 -2 22 -10
22 -28z m-1595 -36 c0 -8 5 -14 11 -14 5 0 7 -4 4 -10 -3 -5 -24 -10 -46 -10
-37 0 -40 2 -34 23 10 32 35 49 52 36 7 -6 13 -18 13 -25z m1610 -24 c0 -5
-18 -10 -40 -10 -22 0 -40 5 -40 10 0 6 18 10 40 10 22 0 40 -4 40 -10z m4425
-138 c-10 -2 -27 5 -38 17 l-21 20 38 -17 c26 -12 33 -18 21 -20z m-1151 -83
c30 -24 34 -57 8 -89 -36 -44 -112 -17 -112 41 0 28 39 69 65 69 7 0 24 -9 39
-21z m4471 1 c-49 -4 -200 -8 -334 -9 l-245 -1 -40 -37 c-61 -58 -67 -63 -74
-63 -4 0 21 27 55 60 l62 60 333 -1 c228 -1 305 -4 243 -9z m228 3 c-13 -2
-33 -2 -45 0 -13 2 -3 4 22 4 25 0 35 -2 23 -4z m612 -3 c-3 -5 -12 -7 -20 -3
-21 7 -19 13 6 13 11 0 18 -4 14 -10z m-7060 -70 c-21 -23 -35 -26 -35 -6 0
13 15 21 44 25 5 0 1 -8 -9 -19z m-215 -25 c0 -8 -6 -15 -14 -15 -8 0 -16 7
-20 15 -4 10 1 15 14 15 11 0 20 -7 20 -15z m387 -12 c14 -21 14 -25 -2 -43
-24 -27 -41 -25 -61 5 -15 24 -15 27 0 44 22 24 45 22 63 -6z m1958 -2 c3 -10
3 -26 -1 -35 -12 -32 -64 -12 -64 25 0 31 55 40 65 10z m-1745 -44 c0 -2 -10
-12 -22 -23 l-23 -19 19 23 c18 21 26 27 26 19z m5080 -27 c0 -16 -59 -77 -80
-83 -29 -7 -25 -1 25 49 47 45 55 51 55 34z m-4136 -165 c13 -14 31 -25 40
-25 9 0 16 -4 16 -10 0 -5 -8 -10 -18 -10 -10 0 -25 -9 -35 -20 -9 -11 -26
-20 -37 -20 -11 0 -28 9 -37 20 -10 11 -25 20 -35 20 -10 0 -18 5 -18 10 0 6
7 10 14 10 8 0 27 11 42 25 15 14 31 25 36 25 5 0 19 -11 32 -25z m-2674 -10
c26 -31 -13 -82 -44 -56 -32 27 -19 62 25 70 4 0 12 -6 19 -14z m1540 11 c0
-2 -8 -10 -17 -17 -16 -13 -17 -12 -4 4 13 16 21 21 21 13z m4430 -25 c-5 -11
-7 -33 -4 -50 8 -38 -3 -41 -17 -4 -13 34 -4 73 17 73 11 0 12 -4 4 -19z m105
9 c3 -5 -1 -10 -9 -10 -8 0 -18 5 -21 10 -3 6 1 10 9 10 8 0 18 -4 21 -10z
m-8450 -25 c0 -23 -34 -33 -46 -14 -10 17 9 41 30 37 9 -2 16 -12 16 -23z
m4510 4 c8 -8 -41 -14 -93 -12 -8 1 -11 -6 -8 -15 5 -13 3 -13 -9 2 -11 14
-22 17 -45 13 -24 -5 -30 -3 -30 11 0 15 10 17 87 14 49 -2 92 -8 98 -13z
m-2863 -3 c64 1 105 -3 102 -8 -4 -5 7 -26 23 -46 16 -20 33 -43 37 -50 14
-24 -34 6 -77 47 l-38 36 -147 -3 c-141 -2 -210 3 -198 16 12 12 92 19 141 13
28 -3 98 -6 157 -5z m689 -61 c19 -22 25 -33 14 -26 -37 27 -77 66 -87 85 -10
19 -10 19 14 0 13 -10 40 -37 59 -59z m6907 11 c4 -20 -13 -36 -39 -36 -20 0
-31 23 -22 46 8 22 57 14 61 -10z m1860 -19 c4 -22 -27 -35 -39 -16 -5 8 -9
20 -9 27 0 20 44 10 48 -11z m-1315 6 c-23 -2 -64 -2 -90 0 -26 2 -7 3 42 3
50 0 71 -1 48 -3z m270 0 c-23 -2 -64 -2 -90 0 -26 2 -7 3 42 3 50 0 71 -1 48
-3z m-8545 -10 c-26 -2 -71 -2 -100 0 -29 2 -8 3 47 3 55 0 79 -1 53 -3z
m9996 -188 c4 -10 -1 -15 -14 -15 -10 0 -23 -7 -28 -16 -29 -52 -150 -152
-166 -137 -10 11 -7 19 27 62 73 92 165 146 181 106z m1051 4 c12 -18 -3 -23
-75 -27 -82 -5 -120 3 -120 23 0 12 18 15 94 15 56 0 97 -4 101 -11z m-865 -3
c0 -3 -4 -8 -10 -11 -5 -3 -10 -1 -10 4 0 6 5 11 10 11 6 0 10 -2 10 -4z m310
-6 c0 -6 -33 -10 -80 -10 -47 0 -80 4 -80 10 0 6 33 10 80 10 47 0 80 -4 80
-10z m660 0 c0 -5 -4 -10 -10 -10 -5 0 -10 5 -10 10 0 6 5 10 10 10 6 0 10 -4
10 -10z m-2103 -47 c25 -25 60 -49 77 -54 l31 -7 -30 -1 c-25 -1 -42 10 -85
54 -30 30 -51 55 -47 55 5 0 29 -21 54 -47z m-1867 29 c0 -5 -9 -17 -20 -27
-22 -20 -26 -14 -10 16 11 19 30 26 30 11z m858 -24 c15 -15 16 -55 1 -63 -5
-4 -21 -4 -35 -1 -18 5 -24 13 -24 35 0 27 6 32 41 40 3 0 10 -4 17 -11z
m-1078 -28 c0 -24 -26 -38 -42 -22 -16 16 -2 42 22 42 13 0 20 -7 20 -20z
m1600 0 c0 -11 -6 -20 -13 -20 -19 0 -27 10 -20 26 8 21 33 17 33 -6z m2404
-11 c-8 -14 -34 -11 -34 4 0 8 3 17 7 20 9 9 34 -13 27 -24z m-2364 -64 c0 -9
-9 -15 -25 -15 -24 0 -32 10 -18 23 12 13 43 7 43 -8z m-1556 -9 c-3 -8 -13
-17 -22 -21 -13 -5 -13 -2 3 15 21 24 26 25 19 6z m996 -30 c0 -2 -9 -6 -20
-9 -11 -3 -18 -1 -14 4 5 9 34 13 34 5z m-7840 -161 c0 -8 -7 -15 -15 -15 -8
0 -15 7 -15 15 0 8 7 15 15 15 8 0 15 -7 15 -15z m6640 -20 c-7 -9 -15 -13
-17 -11 -7 7 7 26 19 26 6 0 6 -6 -2 -15z m-512 -2 c-10 -2 -26 -2 -35 0 -10
3 -2 5 17 5 19 0 27 -2 18 -5z m962 -35 c0 -23 -18 -41 -34 -35 -9 4 -16 16
-16 27 0 15 7 20 25 20 14 0 25 -6 25 -12z m1157 1 c15 -15 5 -39 -17 -39 -22
0 -32 24 -17 39 6 6 14 11 17 11 3 0 11 -5 17 -11z m2491 -12 c2 -12 -3 -17
-17 -17 -15 0 -21 6 -21 21 0 25 33 22 38 -4z m-4618 3 c0 -5 -4 -10 -9 -10
-6 0 -13 5 -16 10 -3 6 1 10 9 10 9 0 16 -4 16 -10z m3820 0 c0 -5 -4 -10 -10
-10 -5 0 -10 5 -10 10 0 6 5 10 10 10 6 0 10 -4 10 -10z m-3780 -26 c50 -10
15 -24 -62 -24 -62 0 -95 12 -66 23 19 8 91 8 128 1z m-612 -11 c-15 -2 -42
-2 -60 0 -18 2 -6 4 27 4 33 0 48 -2 33 -4z m2695 -40 c-7 -2 -19 -2 -25 0 -7
3 -2 5 12 5 14 0 19 -2 13 -5z m-4713 -152 c0 -18 32 -41 56 -41 13 0 24 -4
24 -10 0 -5 -15 -10 -34 -10 -25 0 -40 7 -54 25 -17 21 -28 25 -72 25 -31 0
-49 4 -45 10 8 13 125 13 125 1z m-12 -100 c26 -22 28 -48 6 -79 -19 -28 -67
-29 -94 -2 -26 26 -25 50 0 78 25 27 60 28 88 3z m1440 -23 c5 -39 -33 -58
-60 -30 -17 16 -18 23 -8 41 17 33 64 25 68 -11z m-5798 -47 c-5 -11 -25 -30
-42 -42 -32 -21 -31 -21 7 19 44 47 51 51 35 23z m-639 -36 c-1 -15 -24 -12
-29 3 -3 9 2 13 12 10 10 -1 17 -7 17 -13z m1719 0 c0 -8 -7 -15 -15 -15 -8 0
-15 7 -15 15 0 8 7 15 15 15 8 0 15 -7 15 -15z m860 -1 c0 -9 -5 -14 -12 -12
-18 6 -21 28 -4 28 9 0 16 -7 16 -16z m14110 -34 c0 -21 -24 -28 -35 -10 -8
14 3 30 21 30 8 0 14 -9 14 -20z m-7910 -97 c0 -10 -32 -43 -42 -43 -4 0 -8
11 -8 25 0 20 5 25 25 25 14 0 25 -3 25 -7z m-2795 -278 c0 -28 -29 -25 -33 3
-3 19 0 23 15 20 10 -2 18 -12 18 -23z"/>
<path d="M4292 4898 c-7 -7 -12 -24 -12 -38 0 -50 55 -69 84 -29 31 45 -33
106 -72 67z"/>
<path d="M7450 4376 c0 -7 -3 -28 -6 -45 -6 -28 -4 -31 20 -31 24 0 26 3 26
45 0 38 -3 45 -20 45 -11 0 -20 -6 -20 -14z"/>
<path d="M5610 2105 c-10 -12 -10 -21 -2 -40 14 -31 56 -34 72 -5 24 44 -38
83 -70 45z"/>
</g>
</svg>
